<svg version="1.1" xmlns="http://www.w3.org/2000/svg" xmlns:xlink="http://www.w3.org/1999/xlink" width="177.48684" height="165.82102" viewBox="0,0,177.48684,165.82102"><g transform="translate(-133.94099,-76.82578)"><g data-paper-data="{&quot;isPaintingLayer&quot;:true}" fill="#23dc11" fill-rule="nonzero" stroke-linecap="butt" stroke-linejoin="miter" stroke-miterlimit="10" stroke-dasharray="" stroke-dashoffset="0" style="mix-blend-mode: normal"><path d="M250.39062,182.33876c0,25.36866 -20.07572,45.93405 -44.84038,45.93405c-24.76464,0 -44.84038,-20.56536 -44.84038,-45.93404c0,-25.36866 20.07572,-45.93405 44.84038,-45.93405c24.76465,0 44.84038,20.56536 44.84038,45.93405z" stroke="#000000" stroke-width="2.5"/><path d="M208.10215,163.38186c0,20.93921 -16.32173,37.91383 -36.45558,37.91383c-20.13387,0 -36.45558,-16.97459 -36.45558,-37.91383c0,-20.93921 16.32172,-37.9138 36.45558,-37.9138c20.13387,0 36.45558,16.97459 36.45558,37.9138z" stroke="#000000" stroke-width="2.5"/><path d="M310.1778,139.32117c0,26.97939 -21.8711,48.85049 -48.85047,48.85049c-26.97939,0 -48.8505,-21.87112 -48.8505,-48.85049c0,-26.97939 21.87111,-48.85047 48.8505,-48.85047c26.97939,0 48.85049,21.87111 48.85049,48.85049z" stroke="#000000" stroke-width="2.5"/><path d="M244.55773,127.65537c0,27.38206 -22.85039,49.5796 -51.0378,49.5796c-28.18741,0 -51.03782,-22.19754 -51.03782,-49.5796c0,-27.38206 22.85042,-49.57959 51.03783,-49.57959c28.18741,0 51.03783,22.19755 51.03783,49.57961z" stroke="#000000" stroke-width="2.5"/><path d="M289.76267,201.66022c0,21.94591 -17.13782,39.73658 -38.27836,39.73658c-21.14057,0 -38.27836,-17.79067 -38.27836,-39.73658c0,-21.94591 17.13781,-39.7366 38.27836,-39.7366c21.14056,0 38.27836,17.79069 38.27836,39.7366z" stroke="#000000" stroke-width="2.5"/><path d="M209.06903,193.03768c-2.83408,-2.83408 -0.95428,-5.66815 -0.24099,-6.54209c0.51681,-2.69138 0.30904,-5.65728 1.3143,-8.10973c-0.58442,0.11308 -1.17082,0.21892 -1.75878,0.31772c-1.06662,0.96846 -2.13654,1.82013 -3.21158,2.65444c0.73954,0.84709 1.18755,1.95527 1.18755,3.16809c0,1.92391 -1.12734,3.58451 -2.75746,4.35726l-4.28127,2.14065l-0.25233,-0.50465l-0.79569,0.88451c-0.36909,-0.09812 -0.73817,-0.19625 -1.10726,-0.29436v0.42329h-1.08547l-0.40481,0.2203c0,0 -2.73773,1.36888 -4.94045,-0.25702c-2.37955,-0.29442 -4.22152,-2.32341 -4.22152,-4.78263c0,-1.50117 0.68635,-2.84203 1.76236,-3.7259l3.73572,-3.1131c-3.83398,0.03073 -7.86416,0.10142 -11.55374,-0.94334c-3.1507,-0.89218 -5.65314,-3.44653 -8.78976,-4.3871c-1.64612,-0.49362 -3.47615,-0.1776 -5.10378,-0.72912c-7.47288,-2.53209 -8.91826,-11.36222 -15.19835,-12.36112c0,0 -4.63393,-1.32397 -3.30996,-5.9579c1.32397,-4.63393 5.9579,-3.30996 5.9579,-3.30996c2.28588,0.79454 4.95209,0.89183 6.85762,2.38359c2.73236,2.13905 3.10076,6.43553 5.74728,8.67992c2.58798,2.19474 4.71241,1.08474 7.92324,2.09426c3.09731,0.97384 5.59013,3.45967 8.70895,4.36223c2.58373,0.74774 7.77442,0.52232 10.26923,0.52232c3.12434,0 6.62263,-0.13537 10.22053,-0.53185c0.45103,-0.49113 3.03535,-3.05038 6.16994,-0.94999c9.20455,-1.8632 18.04712,-5.87301 22.02698,-14.09268c1.24442,-9.52998 2.9081,-18.22842 8.91805,-25.70899l1.75275,-1.78075c0,0 3.4078,-3.40779 6.8156,0c3.40779,3.40779 0,6.81561 0,6.81561l-1.1637,1.13569c-5.26941,5.9959 -5.92795,14.60037 -7.12242,22.4124c-0.66132,1.30306 -1.38473,2.53542 -2.16485,3.70047c3.13151,-0.34624 6.2818,-0.52009 9.44074,-0.59633c0.78008,-0.15301 1.57187,-0.31549 2.37801,-0.49375c5.27755,-1.16702 13.46762,-3.39715 18.79061,-0.74918c0.11289,0.05615 0.22491,0.11372 0.3361,0.17259l0.02414,-0.08449l5.00134,1.42896c2.07015,0.54079 3.5978,2.42358 3.5978,4.6632c0,2.66165 -2.15771,4.81936 -4.81936,4.81936h-5.10378c-6.56231,0 -13.21377,-0.32627 -19.81268,-0.16612c-2.91837,0.37178 -5.86106,0.6192 -8.68433,1.41755c-1.73435,0.49042 -3.28569,1.27798 -4.75468,2.18978c0.00908,0.0319 0.01336,0.049 0.01336,0.049c0.35316,1.44619 0.61595,2.86634 0.83301,4.27213c2.22732,1.30703 2.22732,4.18785 2.22732,4.18785l-0.09357,0.51307c0.50944,2.58713 1.87548,5.1475 1.52836,7.76136c-0.02109,0.15886 -0.04465,0.31716 -0.07048,0.4749h0.09394v6.56202c0,2.66165 -2.1577,4.81936 -4.81936,4.81936c-2.23961,0 -4.12243,-1.52768 -4.66322,-3.59782l-1.42894,-5.00134l0.03217,-0.00919l-0.05359,-0.06818c-1.20659,-4.93759 -1.37718,-9.57051 -2.2416,-14.36391c-2.27318,1.12287 -4.67142,1.98729 -7.03601,2.92124c0.0496,2.40035 -0.96925,4.77465 -1.84824,7.87448l-1.95523,2.81293c0,0 -3.40781,3.40779 -6.8156,0z" stroke="none" stroke-width="2.5"/><path d="M196.96448,121.66541c0,4.43776 -3.434,8.03529 -7.67005,8.03529c-4.23605,0 -7.67004,-3.59752 -7.67004,-8.03529c0,-4.43776 3.43399,-8.03529 7.67004,-8.03529c4.23605,0 7.67005,3.59752 7.67005,8.03529z" stroke="#000000" stroke-width="2"/><path d="M171.68454,129.2709l-3.39837,0.67967c-0.17418,0.03842 -0.35518,0.05867 -0.54091,0.05867c-1.38071,0 -2.5,-1.11929 -2.5,-2.5c0,-1.11245 0.72662,-2.0552 1.73113,-2.37954l2.57565,-0.8988l0.03385,0.09702l0.17777,-0.16053c2.82996,-0.45782 5.57134,-1.02882 8.31081,-1.68448c0.19151,-0.29058 0.44201,-0.53884 0.73447,-0.72771l2.15918,-1.43945l0.06832,0.10247c0.18519,-0.15309 0.38231,-0.29246 0.59398,-0.41507c1.30188,-0.75417 2.99822,-0.07879 4.51282,-0.06205l1.95153,-0.78061c0.75136,-0.53878 1.48354,-1.11375 2.35855,-1.36535c0.38659,-0.11116 6.19786,-0.09071 7.24166,-0.09071c0,0 2.35651,0.00001 2.49376,2.28788c0.34848,-0.0312 0.69693,-0.06248 1.04536,-0.09387l0.11328,0.02733v-0.02989h5c1.38071,0 2.5,1.11929 2.5,2.5c0,0.91339 -0.48985,1.71238 -1.22116,2.1486l-3.50173,2.16834l-0.02092,-0.03378c-0.08835,0.06427 -0.17802,0.12698 -0.26911,0.18799c-1.17922,0.78977 -2.64316,0.97988 -4.05124,1.28675c-0.27228,0.41267 -0.66359,0.73987 -1.12504,0.93269l-4.5169,2.00751l-0.01579,-0.03552c-0.07758,0.0446 -0.15575,0.0883 -0.23457,0.13107c-0.05951,0.03229 -7.01982,1.46429 -8.18419,1.70439l-0.07945,-0.00957l0.0031,0.02168l-4.90717,0.70102c-0.12902,0.02054 -0.26133,0.03121 -0.39613,0.03121c-1.26921,0 -2.31751,-0.94581 -2.47855,-2.17106c-1.19921,-0.05833 -2.17655,-0.96164 -2.34935,-2.12725c-1.55505,0.07882 -2.71164,0.04692 -3.81461,-0.06906z" stroke="none" stroke-width="0.5"/><path d="M263.73368,153.82285c-4.4354,0.14497 -8.14317,-3.16968 -8.28154,-7.40347c-0.13837,-4.23379 3.34505,-7.78347 7.78045,-7.92843c4.4354,-0.14497 8.14317,3.16968 8.28154,7.40347c0.13837,4.23379 -3.34506,7.78346 -7.78045,7.92843z" stroke="#000000" stroke-width="2"/><path d="M255.30646,128.80484l-0.79032,-3.37435c-0.04409,-0.17283 -0.07024,-0.35308 -0.07631,-0.53871c-0.0451,-1.37998 1.03703,-2.53523 2.417,-2.58033c1.11186,-0.03634 2.07783,0.6591 2.43481,1.65248l0.98247,2.54491l-0.09587,0.03701l0.16625,0.17243c0.55003,2.8135 1.21026,5.53476 1.95506,8.25135c0.29668,0.18191 0.55298,0.42417 0.75131,0.7103l1.50921,2.11101l-0.10019,0.07162c0.15906,0.18009 0.3048,0.37256 0.43426,0.5801c0.79629,1.27655 0.17668,2.99405 0.20942,4.50839l0.84394,1.92498c0.56303,0.73336 1.16161,1.44637 1.44166,2.31269c0.12373,0.38276 0.29313,6.19159 0.32722,7.23483c0,0 0.07697,2.35525 -2.2052,2.56717c0.04257,0.34727 0.08522,0.69452 0.12797,1.04173l-0.02361,0.11412l0.02988,-0.00098l0.16333,4.99733c0.0451,1.37998 -1.03703,2.53523 -2.41701,2.58033c-0.91291,0.02983 -1.72747,-0.43364 -2.18734,-1.15032l-2.28157,-3.42903l0.03307,-0.02201c-0.06712,-0.0862 -0.13272,-0.17378 -0.19668,-0.26283c-0.82786,-1.15279 -1.0657,-2.60974 -1.4184,-4.00705c-0.42134,-0.25865 -0.76116,-0.63907 -0.96895,-1.09398l-2.15399,-4.44891l0.03499,-0.01694c-0.04711,-0.07608 -0.09334,-0.15279 -0.13866,-0.23016c-0.03421,-0.05842 -1.69282,-6.96824 -1.97083,-8.12415l0.00697,-0.07972l-0.02157,0.0038l-0.86094,-4.88165c-0.02474,-0.12828 -0.03973,-0.26017 -0.04413,-0.3949c-0.04146,-1.26853 0.8696,-2.34717 2.08894,-2.54815c0.01913,-1.20048 0.89003,-2.2068 2.04937,-2.41759c-0.12958,-1.55164 -0.13547,-2.70866 -0.05558,-3.81483z" stroke="none" stroke-width="0.5"/><path d="M242.0703,176.76367c-1.77981,-4.06522 -0.0769,-8.73797 3.80355,-10.43687c3.88045,-1.6989 8.46898,0.21938 10.24878,4.2846c1.7798,4.06522 0.0769,8.73798 -3.80354,10.43688c-3.88045,1.6989 -8.46898,-0.21939 -10.24879,-4.28461z" stroke="#000000" stroke-width="2"/><path d="M262.17782,159.65791l2.84049,-1.98556c0.14414,-0.10505 0.30183,-0.1962 0.47197,-0.27069c1.2648,-0.55374 2.73903,0.02269 3.29278,1.28749c0.44616,1.01907 0.15863,2.17408 -0.63148,2.87406l-1.99895,1.85635l-0.06993,-0.0753l-0.09847,0.21835c-2.40878,1.55437 -4.69101,3.17688 -6.93756,4.87619c-0.05889,0.34299 -0.1888,0.67088 -0.38095,0.96118l-1.40061,2.18457l-0.10368,-0.06647c-0.10825,0.21452 -0.23292,0.42124 -0.37764,0.61845c-0.89012,1.21299 -2.71493,1.27463 -4.1091,1.86674l-1.47463,1.49776c-0.47221,0.79488 -0.91232,1.61523 -1.61297,2.19664c-0.30956,0.25688 -5.64118,2.56881 -6.59735,2.98743c0,0 -2.1587,0.94509 -3.202,-1.09567c-0.30671,0.16834 -0.61336,0.33675 -0.91995,0.50524l-0.11474,0.02041l0.01199,0.02738l-4.58026,2.0053c-1.2648,0.55374 -2.73904,-0.02269 -3.29278,-1.28749c-0.36632,-0.83672 -0.23805,-1.76509 0.25693,-2.45798l2.33815,-3.39071l0.0327,0.02255c0.05516,-0.09431 0.11215,-0.18771 0.17113,-0.28014c0.76349,-1.1964 2.02828,-1.95768 3.1951,-2.80352c0.08391,-0.48722 0.31115,-0.9439 0.65653,-1.3056l3.33259,-3.65053l0.02871,0.02621c0.05318,-0.07197 0.10727,-0.14336 0.16231,-0.21414c0.04156,-0.05345 5.84325,-4.15672 6.81359,-4.84365l0.07662,-0.0231l-0.01153,-0.01862l4.21408,-2.61023c0.10995,-0.07056 0.22688,-0.1334 0.35036,-0.18746c1.16267,-0.50903 2.50229,-0.06305 3.1412,0.99476c1.12193,-0.42751 2.3795,0.00798 3.00528,1.00644c1.39289,-0.69587 2.46519,-1.1305 3.52208,-1.46661z" stroke="none" stroke-width="0.5"/><path d="M223.69493,154.7359c-1.77981,-4.06522 -0.0769,-8.73797 3.80355,-10.43687c3.88045,-1.6989 8.46898,0.21938 10.24878,4.2846c1.77981,4.06522 0.0769,8.73798 -3.80355,10.43688c-3.88045,1.6989 -8.46898,-0.21939 -10.24878,-4.28461z" stroke="#000000" stroke-width="2"/><path d="M243.80245,137.63014l2.84049,-1.98557c0.14415,-0.10505 0.30183,-0.1962 0.47197,-0.27068c1.2648,-0.55374 2.73904,0.02268 3.29278,1.28749c0.44616,1.01907 0.15863,2.17409 -0.63148,2.87406l-1.99895,1.85635l-0.06993,-0.0753l-0.09847,0.21835c-2.40878,1.55437 -4.69102,3.17688 -6.93756,4.87619c-0.05889,0.34299 -0.1888,0.67087 -0.38096,0.96117l-1.40061,2.18457l-0.10368,-0.06647c-0.10825,0.21452 -0.23292,0.42124 -0.37764,0.61845c-0.89013,1.21299 -2.71493,1.27464 -4.1091,1.86674l-1.47463,1.49775c-0.47221,0.79488 -0.91232,1.61523 -1.61297,2.19664c-0.30956,0.25688 -5.64118,2.56881 -6.59735,2.98743c0,0 -2.15869,0.94509 -3.20199,-1.09567c-0.30671,0.16834 -0.61336,0.33675 -0.91995,0.50524l-0.11474,0.02041l0.01199,0.02738l-4.58026,2.00529c-1.2648,0.55374 -2.73904,-0.02268 -3.29278,-1.28749c-0.36632,-0.83672 -0.23804,-1.76509 0.25693,-2.45799l2.33814,-3.39071l0.0327,0.02255c0.05516,-0.09431 0.11215,-0.18771 0.17113,-0.28014c0.76349,-1.1964 2.02828,-1.95768 3.19509,-2.80352c0.08391,-0.48722 0.31115,-0.9439 0.65654,-1.3056l3.33259,-3.65053l0.02871,0.02621c0.05318,-0.07197 0.10727,-0.14336 0.16232,-0.21414c0.04156,-0.05345 5.84325,-4.15672 6.81359,-4.84365l0.07662,-0.0231l-0.01153,-0.01863l4.21408,-2.61023c0.10995,-0.07056 0.22688,-0.13339 0.35036,-0.18746c1.16267,-0.50903 2.50229,-0.06305 3.14121,0.99476c1.12194,-0.42751 2.3795,0.00798 3.00528,1.00644c1.39289,-0.69587 2.46519,-1.1305 3.52209,-1.46661z" stroke="none" stroke-width="0.5"/><path d="M203.74188,171.89325c2.4622,-3.69207 7.31517,-4.77979 10.83941,-2.42951c3.52425,2.35028 4.3852,7.24857 1.923,10.94063c-2.4622,3.69207 -7.31517,4.7798 -10.83941,2.42952c-3.52425,-2.35028 -4.3852,-7.24857 -1.923,-10.94064z" stroke="#000000" stroke-width="2"/><path d="M228.99365,179.59179l3.20443,1.32004c0.16622,0.06467 0.32805,0.14825 0.48257,0.25129c1.14871,0.76606 1.4589,2.31829 0.69284,3.46699c-0.61722,0.92552 -1.74481,1.3067 -2.76048,1.0192l-2.64154,-0.68127l0.02567,-0.0995l-0.23697,0.03492c-2.60844,-1.18925 -5.20598,-2.23519 -7.8489,-3.20964c-0.32055,0.1355 -0.6667,0.20306 -1.01479,0.19792l-2.59501,-0.0004l0.00002,-0.12316c-0.23902,0.02462 -0.48034,0.0312 -0.72446,0.01577c-1.50155,-0.09488 -2.53813,-1.59795 -3.78893,-2.45222l-2.0567,-0.43332c-0.92403,0.03136 -1.85218,0.10349 -2.71976,-0.17267c-0.38331,-0.12202 -5.20673,-3.36327 -6.07513,-3.9424c0,0 -1.96053,-1.30747 -0.80534,-3.28705c-0.30723,-0.16738 -0.61449,-0.33469 -0.92178,-0.50189l-0.07909,-0.08559l-0.01658,0.02487l-4.15982,-2.77414c-1.14871,-0.76606 -1.4589,-2.31828 -0.69284,-3.46699c0.50678,-0.75992 1.35762,-1.15287 2.20807,-1.11003l4.11638,0.13888l-0.00134,0.0397c0.10916,-0.00446 0.21855,-0.00687 0.32819,-0.00708c1.41925,-0.00279 2.74267,0.65127 4.08442,1.17722c0.45549,-0.19226 0.96259,-0.24737 1.45348,-0.15176l4.87173,0.83593l-0.00657,0.03831c0.08929,0.00594 0.17858,0.01296 0.26788,0.02111c0.06742,0.00616 6.65267,2.67655 7.7546,3.12283l0.06079,0.05204l0.00946,-0.01976l4.47153,2.13942c0.11873,0.0545 0.23473,0.11903 0.34688,0.19382c1.05594,0.70419 1.40333,2.0727 0.8575,3.18142c0.96534,0.71389 1.27727,2.00766 0.77432,3.07328c1.33748,0.7972 2.28202,1.46546 3.1353,2.17391z" stroke="none" stroke-width="0.5"/><path d="M159.06921,162.28364c2.4622,-3.69207 7.31517,-4.77979 10.83941,-2.42951c3.52425,2.35028 4.3852,7.24857 1.923,10.94064c-2.4622,3.69207 -7.31516,4.77979 -10.83941,2.42951c-3.52425,-2.35028 -4.3852,-7.24857 -1.923,-10.94064z" stroke="#000000" stroke-width="2"/><path d="M184.32098,169.98219l3.20442,1.32005c0.16622,0.06467 0.32805,0.14825 0.48257,0.25129c1.14871,0.76606 1.4589,2.31828 0.69284,3.46699c-0.61722,0.92552 -1.7448,1.3067 -2.76047,1.0192l-2.64154,-0.68126l0.02567,-0.0995l-0.23697,0.03492c-2.60844,-1.18925 -5.20597,-2.23519 -7.8489,-3.20965c-0.32055,0.1355 -0.6667,0.20306 -1.01479,0.19793l-2.59501,-0.0004l0.00001,-0.12316c-0.23902,0.02462 -0.48033,0.0312 -0.72446,0.01578c-1.50155,-0.09488 -2.53813,-1.59795 -3.78893,-2.45222l-2.05671,-0.43332c-0.92403,0.03136 -1.85218,0.10349 -2.71975,-0.17267c-0.38331,-0.12202 -5.20673,-3.36327 -6.07513,-3.9424c0,0 -1.96053,-1.30747 -0.80534,-3.28705c-0.30723,-0.16738 -0.61449,-0.33469 -0.92178,-0.50189l-0.07909,-0.08559l-0.01658,0.02487l-4.15982,-2.77414c-1.14871,-0.76606 -1.4589,-2.31829 -0.69284,-3.46699c0.50678,-0.75992 1.35762,-1.15287 2.20807,-1.11003l4.11638,0.13889l-0.00134,0.0397c0.10916,-0.00446 0.21855,-0.00687 0.32819,-0.00708c1.41925,-0.00279 2.74267,0.65127 4.08442,1.17722c0.45549,-0.19226 0.96259,-0.24737 1.45348,-0.15176l4.87173,0.83593l-0.00657,0.03831c0.08929,0.00594 0.17858,0.01296 0.26788,0.02111c0.06742,0.00616 6.65267,2.67656 7.7546,3.12283l0.06079,0.05204l0.00946,-0.01976l4.47153,2.13942c0.11873,0.0545 0.23473,0.11903 0.34688,0.19382c1.05594,0.70419 1.40333,2.0727 0.8575,3.18141c0.96534,0.71389 1.27727,2.00766 0.77432,3.07328c1.33748,0.7972 2.28202,1.46546 3.1353,2.17391z" stroke="none" stroke-width="0.5"/><path d="M199.13228,202.34671c2.4622,-3.69207 7.31517,-4.77979 10.83941,-2.42951c3.52425,2.35028 4.3852,7.24857 1.923,10.94064c-2.4622,3.69207 -7.31517,4.77979 -10.83941,2.42951c-3.52425,-2.35028 -4.3852,-7.24857 -1.923,-10.94064z" stroke="#000000" stroke-width="2"/><path d="M224.38404,210.04525l3.20443,1.32004c0.16622,0.06467 0.32805,0.14825 0.48257,0.25129c1.14871,0.76606 1.4589,2.31829 0.69284,3.46699c-0.61722,0.92552 -1.74481,1.3067 -2.76048,1.0192l-2.64154,-0.68126l0.02567,-0.0995l-0.23697,0.03492c-2.60844,-1.18925 -5.20598,-2.23519 -7.8489,-3.20964c-0.32055,0.1355 -0.6667,0.20306 -1.01479,0.19792l-2.59501,-0.0004l0.00002,-0.12316c-0.23902,0.02462 -0.48034,0.0312 -0.72446,0.01577c-1.50155,-0.09488 -2.53813,-1.59795 -3.78893,-2.45222l-2.0567,-0.43332c-0.92403,0.03136 -1.85218,0.10349 -2.71976,-0.17267c-0.38331,-0.12202 -5.20673,-3.36327 -6.07513,-3.9424c0,0 -1.96053,-1.30747 -0.80534,-3.28705c-0.30723,-0.16738 -0.61449,-0.3347 -0.92178,-0.5019l-0.07909,-0.08559l-0.01658,0.02487l-4.15982,-2.77414c-1.14871,-0.76606 -1.4589,-2.31829 -0.69284,-3.46699c0.50678,-0.75992 1.35762,-1.15286 2.20807,-1.11002l4.11638,0.13888l-0.00134,0.0397c0.10916,-0.00446 0.21855,-0.00687 0.32819,-0.00709c1.41925,-0.00279 2.74267,0.65127 4.08442,1.17722c0.45549,-0.19226 0.96259,-0.24737 1.45348,-0.15176l4.87173,0.83593l-0.00657,0.03831c0.08929,0.00594 0.17858,0.01296 0.26788,0.02111c0.06742,0.00616 6.65267,2.67656 7.7546,3.12283l0.06079,0.05204l0.00946,-0.01976l4.47153,2.13942c0.11873,0.0545 0.23473,0.11903 0.34688,0.19382c1.05594,0.70419 1.40333,2.0727 0.8575,3.18141c0.96534,0.71389 1.27727,2.00766 0.77432,3.07328c1.33748,0.7972 2.28202,1.46546 3.1353,2.17392z" stroke="none" stroke-width="0.5"/><path d="M200.92545,192.52201c0,1.48852 -0.88627,2.09076 -1.60343,2.33443c-0.27831,0.10695 -0.58059,0.16557 -0.89657,0.16557c-0.33133,0 -0.72488,0 -1.15591,0c-0.45227,0.45138 -1.07655,0.73048 -1.76601,0.73048c-0.68947,0 -1.31374,-0.2791 -1.76601,-0.73048c-0.7163,0 -1.37535,0 -1.88639,0c0,0 -2.5,0 -2.5,-2.5c0,-2.5 2.5,-2.5 2.5,-2.5c1.66666,0 3.33334,0 5,0h1.57432c0.31598,0 0.61826,0.05862 0.89657,0.16558c0.71716,0.24366 1.60343,0.84591 1.60343,2.33442z" stroke="none" stroke-width="0.5"/><path d="M218.4611,197.1977c0.03825,0.30339 0.01982,0.64965 -0.07877,1.04402c-0.60634,2.42535 -3.03169,1.81902 -3.03169,1.81902c-0.97397,-0.24349 -1.94795,-0.48699 -2.92192,-0.73048l-2.87119,-0.7178c-1.1133,-0.25265 -1.94439,-1.24829 -1.94439,-2.43804c0,-1.1246 0.74256,-2.07576 1.76412,-2.38994l1.23326,-0.41108c0.60769,-2.42157 3.03088,-1.81578 3.03088,-1.81578l1.71858,0.44231c0.69639,-0.05084 1.41164,0.00976 2.12838,0.07924c0.47976,-0.06897 0.9484,-0.09412 1.35724,0.11653c0.18291,0.0102 0.36518,0.0167 0.54655,0.01776h3.86964c1.38071,0 2.5,1.11929 2.5,2.5c0,1.38071 -1.11929,2.5 -2.5,2.5h-4.38288v-0.00699c-0.13897,-0.0023 -0.27827,-0.00516 -0.4178,-0.00876z" stroke="none" stroke-width="0.5"/><path d="M239.92582,203.6943c2.4622,-3.69207 7.31516,-4.77979 10.83941,-2.42951c3.52425,2.35028 4.3852,7.24857 1.923,10.94063c-2.4622,3.69207 -7.31516,4.7798 -10.83941,2.42952c-3.52425,-2.35028 -4.3852,-7.24857 -1.923,-10.94064z" stroke="#000000" stroke-width="2"/><path d="M265.17758,211.39285l3.20443,1.32004c0.16622,0.06467 0.32805,0.14825 0.48257,0.25129c1.14871,0.76606 1.4589,2.31829 0.69284,3.46699c-0.61722,0.92552 -1.7448,1.3067 -2.76047,1.0192l-2.64154,-0.68126l0.02567,-0.09951l-0.23697,0.03492c-2.60845,-1.18925 -5.20598,-2.23519 -7.8489,-3.20964c-0.32055,0.1355 -0.6667,0.20306 -1.01479,0.19792l-2.59501,-0.0004l0.00001,-0.12316c-0.23902,0.02462 -0.48033,0.0312 -0.72446,0.01577c-1.50155,-0.09488 -2.53813,-1.59795 -3.78894,-2.45222l-2.0567,-0.43332c-0.92403,0.03136 -1.85218,0.10349 -2.71975,-0.17267c-0.38331,-0.12202 -5.20673,-3.36327 -6.07513,-3.9424c0,0 -1.96053,-1.30747 -0.80534,-3.28705c-0.30723,-0.16738 -0.61449,-0.33469 -0.92178,-0.50189l-0.07909,-0.08559l-0.01658,0.02487l-4.15983,-2.77414c-1.14871,-0.76606 -1.4589,-2.31829 -0.69284,-3.46699c0.50678,-0.75992 1.35762,-1.15287 2.20807,-1.11003l4.11638,0.13889l-0.00134,0.0397c0.10916,-0.00446 0.21855,-0.00687 0.32819,-0.00708c1.41925,-0.00279 2.74267,0.65127 4.08442,1.17722c0.45549,-0.19226 0.96259,-0.24737 1.45348,-0.15176l4.87173,0.83592l-0.00657,0.03831c0.08929,0.00594 0.17858,0.01295 0.26788,0.0211c0.06742,0.00616 6.65267,2.67656 7.7546,3.12283l0.06079,0.05204l0.00946,-0.01976l4.47153,2.13942c0.11874,0.0545 0.23473,0.11903 0.34688,0.19382c1.05594,0.70419 1.40333,2.0727 0.8575,3.18142c0.96533,0.71389 1.27727,2.00766 0.77432,3.07328c1.33747,0.7972 2.28201,1.46546 3.1353,2.17391z" stroke="none" stroke-width="0.5"/></g></g></svg>