<svg version="1.1" xmlns="http://www.w3.org/2000/svg" xmlns:xlink="http://www.w3.org/1999/xlink" width="272.08142" height="254.1093" viewBox="0,0,272.08142,254.1093"><g transform="translate(-107.71303,-44.83725)"><g data-paper-data="{&quot;isPaintingLayer&quot;:true}" fill="#23dc11" fill-rule="nonzero" stroke-linecap="butt" stroke-linejoin="miter" stroke-miterlimit="10" stroke-dasharray="" stroke-dashoffset="0" style="mix-blend-mode: normal"><path d="M286.43742,206.71284c0,39.08248 -30.92828,70.76513 -69.08025,70.76513c-38.15194,0 -69.08025,-31.68261 -69.08025,-70.76512c0,-39.08248 30.92828,-70.76513 69.08025,-70.76513c38.15195,0 69.08025,31.68261 69.08025,70.76513z" stroke="#000000" stroke-width="2.5"/><path d="M221.2886,177.5082c0,32.25855 -25.14495,58.40933 -56.16278,58.40933c-31.01786,0 -56.16278,-26.15073 -56.16278,-58.40933c0,-32.25855 25.14494,-58.40929 56.16278,-58.40929c31.01786,0 56.16278,26.15073 56.16278,58.40929z" stroke="#000000" stroke-width="2.5"/><path d="M378.54443,140.44075c0,41.56394 -33.69421,75.25815 -75.25812,75.25815c-41.56394,0 -75.25816,-33.69424 -75.25816,-75.25815c0,-41.56394 33.69422,-75.25812 75.25816,-75.25812c41.56394,0 75.25815,33.69422 75.25815,75.25815z" stroke="#000000" stroke-width="2.5"/><path d="M277.45138,122.46864c0,42.18429 -35.20288,76.3814 -78.62788,76.3814c-43.42499,0 -78.62791,-34.19711 -78.62791,-76.3814c0,-42.18429 35.20293,-76.38139 78.62792,-76.38139c43.42499,0 78.62792,34.19713 78.62792,76.38142z" stroke="#000000" stroke-width="2.5"/><path d="M347.09326,236.47912c0,33.80946 -26.4022,61.21743 -58.97092,61.21743c-32.56877,0 -58.97092,-27.40797 -58.97092,-61.21743c0,-33.80946 26.40219,-61.21746 58.97092,-61.21746c32.56875,0 58.97092,27.408 58.97092,61.21746z" stroke="#000000" stroke-width="2.5"/><path d="M222.77815,223.1954c-4.36613,-4.36613 -1.47015,-8.73225 -0.37126,-10.07862c0.79619,-4.14629 0.4761,-8.7155 2.02479,-12.4937c-0.90035,0.17421 -1.80374,0.33726 -2.70954,0.48947c-1.64321,1.49199 -3.29151,2.80406 -4.9477,4.08938c1.13932,1.30501 1.82952,3.01225 1.82952,4.8807c0,2.96394 -1.73676,5.52223 -4.24809,6.71271l-6.59564,3.29785l-0.38873,-0.77745l-1.22583,1.36266c-0.56861,-0.15116 -1.13721,-0.30234 -1.70582,-0.45349v0.65211h-1.67225l-0.62364,0.33939c0,0 -4.2177,2.10887 -7.61116,-0.39596c-3.66589,-0.45358 -6.50359,-3.5794 -6.50359,-7.36803c0,-2.31267 1.05738,-4.37838 2.71506,-5.74005l5.75518,-4.79598c-5.90656,0.04734 -12.11538,0.15625 -17.79947,-1.45329c-4.85391,-1.37448 -8.70912,-5.30966 -13.54134,-6.75868c-2.53598,-0.76046 -5.35529,-0.27361 -7.86279,-1.12327c-11.51258,-3.90089 -13.7393,-17.50442 -23.41429,-19.04331c0,0 -7.13895,-2.03968 -5.09926,-9.17863c2.03968,-7.13895 9.17863,-5.09926 9.17863,-5.09926c3.52158,1.22405 7.6291,1.37394 10.56472,3.67211c4.20942,3.29538 4.77697,9.91446 8.85415,13.37212c3.98699,3.38118 7.25985,1.67113 12.20639,3.22638c4.77166,1.50028 8.61205,5.3299 13.41684,6.72037c3.98045,1.15195 11.97713,0.80468 15.82058,0.80468c4.8133,0 10.2027,-0.20855 15.74556,-0.81936c0.69485,-0.75663 4.6762,-4.69936 9.50529,-1.46354c14.18036,-2.87041 27.80305,-9.04785 33.93435,-21.71092c1.91713,-14.68171 4.48016,-28.08236 13.73898,-39.60679l2.70025,-2.74339c0,0 5.24999,-5.24998 10.49999,0c5.24998,5.24998 0,10.5 0,10.5l-1.79277,1.74962c-8.11795,9.23717 -9.13249,22.49306 -10.97267,34.52812c-1.01882,2.00747 -2.13329,3.90602 -3.33513,5.70087c4.82435,-0.53341 9.67762,-0.80124 14.54423,-0.91869c1.20178,-0.23572 2.42159,-0.48604 3.66352,-0.76066c8.13049,-1.79789 20.74796,-5.23359 28.94846,-1.15417c0.17392,0.0865 0.34649,0.17519 0.51779,0.26589l0.03719,-0.13016l7.70497,2.20143c3.18923,0.83313 5.5427,3.73372 5.5427,7.18404c0,4.10049 -3.32413,7.42462 -7.42462,7.42462h-7.86279c-10.10977,0 -20.35689,-0.50265 -30.52304,-0.25592c-4.49599,0.57276 -9.02944,0.95393 -13.37892,2.18385c-2.67191,0.75553 -5.06187,1.96883 -7.32497,3.37353c0.01399,0.04914 0.02058,0.07549 0.02058,0.07549c0.54407,2.22797 0.94892,4.41583 1.28332,6.58156c3.43137,2.01359 3.43137,6.45172 3.43137,6.45172l-0.14415,0.79043c0.78483,3.98568 2.88933,7.93014 2.35456,11.95701c-0.03249,0.24474 -0.06879,0.48861 -0.10858,0.73162h0.14472v10.10932c0,4.10049 -3.32411,7.42462 -7.42462,7.42462c-3.4503,0 -6.35094,-2.35352 -7.18407,-5.54273l-2.2014,-7.70497l0.04956,-0.01416l-0.08256,-0.10504c-1.85885,-7.60676 -2.12166,-14.74415 -3.45337,-22.12877c-3.50202,1.72987 -7.1967,3.06158 -10.83954,4.50041c0.07641,3.69793 -1.49321,7.35574 -2.84736,12.13128l-3.01219,4.33355c0,0 -5.25001,5.24998 -10.49999,0z" stroke="none" stroke-width="2.5"/><path d="M204.13011,113.24062c0,6.83673 -5.29036,12.37902 -11.81634,12.37902c-6.52598,0 -11.81632,-5.54227 -11.81632,-12.37902c0,-6.83673 5.29034,-12.37902 11.81632,-12.37902c6.52598,0 11.81634,5.54227 11.81634,12.37902z" stroke="#000000" stroke-width="2"/><path d="M165.18431,124.95749l-5.23547,1.04709c-0.26834,0.05919 -0.54718,0.09039 -0.83332,0.09039c-2.1271,0 -3.85145,-1.72436 -3.85145,-3.85145c0,-1.71382 1.11942,-3.1662 2.66695,-3.66587l3.968,-1.38467l0.05215,0.14947l0.27387,-0.24731c4.35978,-0.70531 8.5831,-1.58498 12.80348,-2.59508c0.29504,-0.44766 0.68095,-0.83013 1.13151,-1.1211l3.32639,-2.21759l0.10525,0.15786c0.2853,-0.23585 0.58898,-0.45056 0.91507,-0.63945c2.00565,-1.16186 4.619,-0.12138 6.95237,-0.09559l3.00649,-1.20259c1.15753,-0.83003 2.28551,-1.71582 3.63354,-2.10343c0.59557,-0.17125 9.54831,-0.13975 11.15637,-0.13975c0,0 3.6304,0.00002 3.84184,3.52466c0.53686,-0.04807 1.07368,-0.09626 1.61046,-0.14461l0.17452,0.0421v-0.04605h7.70291c2.1271,0 3.85145,1.72436 3.85145,3.85145c0,1.40715 -0.75465,2.63806 -1.8813,3.31009l-5.3947,3.3405l-0.03223,-0.05204c-0.13611,0.09901 -0.27425,0.19562 -0.41459,0.28961c-1.81668,1.2167 -4.072,1.50958 -6.24126,1.98234c-0.41947,0.63575 -1.02231,1.13983 -1.73322,1.43688l-6.95865,3.09273l-0.02433,-0.05472c-0.11952,0.06871 -0.23995,0.13603 -0.36137,0.20192c-0.09168,0.04975 -10.8146,2.25586 -12.60841,2.62575l-0.1224,-0.01474l0.00478,0.0334l-7.55989,1.07998c-0.19877,0.03164 -0.4026,0.04808 -0.61027,0.04808c-1.95532,0 -3.57031,-1.4571 -3.81841,-3.34469c-1.84748,-0.08986 -3.35315,-1.48148 -3.61936,-3.2772c-2.39568,0.12143 -4.1775,0.07228 -5.87672,-0.10639z" stroke="none" stroke-width="0.5"/><path d="M306.99349,162.78177c-6.83309,0.22334 -12.54521,-4.88315 -12.75839,-11.40565c-0.21317,-6.5225 5.15332,-11.99107 11.98642,-12.21439c6.83309,-0.22334 12.54521,4.88315 12.75839,11.40565c0.21317,6.5225 -5.15334,11.99105 -11.98642,12.21439z" stroke="#000000" stroke-width="2"/><path d="M294.01067,124.23949l-1.21755,-5.19846c-0.06792,-0.26626 -0.10821,-0.54395 -0.11756,-0.82993c-0.06948,-2.12597 1.59763,-3.90573 3.72358,-3.97521c1.71291,-0.05598 3.20107,1.0154 3.75102,2.54578l1.51357,3.92064l-0.1477,0.05702l0.25612,0.26564c0.84737,4.33443 1.8645,8.52675 3.01193,12.71187c0.45706,0.28025 0.85191,0.65347 1.15745,1.09427l2.32506,3.25218l-0.15435,0.11034c0.24504,0.27744 0.46957,0.57396 0.66901,0.89369c1.22675,1.96663 0.27219,4.61258 0.32263,6.94554l1.30016,2.96559c0.86739,1.1298 1.78955,2.22825 2.22099,3.56289c0.19062,0.58967 0.45159,9.53865 0.50411,11.14584c0,0 0.11858,3.62845 -3.39729,3.95493c0.06558,0.535 0.13129,1.06996 0.19715,1.60487l-0.03637,0.17581l0.04603,-0.00151l0.25162,7.69879c0.06948,2.12597 -1.59763,3.90573 -3.7236,3.97521c-1.40641,0.04596 -2.66131,-0.66806 -3.36977,-1.77216l-3.51494,-5.2827l0.05095,-0.03391c-0.1034,-0.1328 -0.20447,-0.26772 -0.303,-0.40491c-1.27539,-1.77597 -1.6418,-4.02052 -2.18516,-6.17319c-0.64911,-0.39847 -1.17263,-0.98454 -1.49275,-1.68537l-3.3184,-6.85391l0.0539,-0.0261c-0.07258,-0.11721 -0.1438,-0.23539 -0.21362,-0.35458c-0.0527,-0.09 -2.60793,-10.73514 -3.03622,-12.51591l0.01074,-0.12282l-0.03323,0.00585l-1.32635,-7.52058c-0.03811,-0.19763 -0.06121,-0.40081 -0.06799,-0.60838c-0.06387,-1.95427 1.33969,-3.61601 3.21818,-3.92563c0.02947,-1.84944 1.37116,-3.39975 3.15722,-3.72449c-0.19963,-2.39043 -0.2087,-4.17291 -0.08563,-5.87706z" stroke="none" stroke-width="0.5"/><path d="M273.61929,198.12396c-2.74194,-6.2628 -0.11847,-13.46155 5.85968,-16.07885c5.97815,-2.61729 13.04715,0.33797 15.78908,6.60077c2.74193,6.2628 0.11847,13.46157 -5.85966,16.07886c-5.97815,2.61729 -13.04715,-0.33799 -15.78909,-6.60079z" stroke="#000000" stroke-width="2"/><path d="M304.59656,171.77115l4.37601,-3.05892c0.22206,-0.16184 0.46499,-0.30226 0.72711,-0.41702c1.94853,-0.85308 4.2197,0.03496 5.0728,1.98348c0.68735,1.56996 0.24438,3.34935 -0.97285,4.42772l-3.07954,2.85986l-0.10773,-0.11601l-0.1517,0.33639c-3.71092,2.39463 -7.22688,4.89424 -10.68787,7.51217c-0.09072,0.5284 -0.29086,1.03355 -0.58688,1.48078l-2.15775,3.36551l-0.15973,-0.1024c-0.16677,0.33049 -0.35883,0.64895 -0.58179,0.95277c-1.3713,1.86871 -4.18257,1.96367 -6.3304,2.87586l-2.27179,2.30742c-0.72748,1.22458 -1.4055,2.48839 -2.48491,3.3841c-0.4769,0.39574 -8.6907,3.95746 -10.16375,4.60238c0,0 -3.32565,1.45599 -4.93294,-1.68797c-0.47251,0.25934 -0.94493,0.51879 -1.41726,0.77836l-0.17677,0.03144l0.01847,0.04218l-7.05626,3.08933c-1.94853,0.85308 -4.21971,-0.03496 -5.0728,-1.98348c-0.56435,-1.28904 -0.36674,-2.71926 0.39582,-3.78672l3.60211,-5.22366l0.05038,0.03474c0.08498,-0.14529 0.17278,-0.28918 0.26364,-0.43158c1.17622,-1.84315 3.12473,-3.01597 4.92231,-4.31905c0.12927,-0.7506 0.47935,-1.45415 1.01144,-2.01138l5.13413,-5.62394l0.04423,0.04038c0.08193,-0.11088 0.16526,-0.22086 0.25005,-0.3299c0.06403,-0.08234 9.002,-6.40376 10.49689,-7.46204l0.11804,-0.03559l-0.01776,-0.02869l6.49213,-4.02127c0.16939,-0.1087 0.34953,-0.20551 0.53976,-0.2888c1.79119,-0.7842 3.85498,-0.09713 4.83927,1.53251c1.72842,-0.65861 3.66581,0.01229 4.62988,1.5505c2.14586,-1.07204 3.79783,-1.74163 5.42605,-2.25943z" stroke="none" stroke-width="0.5"/><path d="M245.31054,164.18839c-2.74194,-6.2628 -0.11847,-13.46155 5.85968,-16.07885c5.97815,-2.61729 13.04715,0.33797 15.78908,6.60077c2.74194,6.2628 0.11847,13.46157 -5.85968,16.07886c-5.97815,2.61729 -13.04715,-0.33799 -15.78908,-6.60079z" stroke="#000000" stroke-width="2"/><path d="M276.28781,137.83558l4.37601,-3.05893c0.22207,-0.16184 0.46499,-0.30226 0.72711,-0.417c1.94853,-0.85308 4.21971,0.03494 5.0728,1.98348c0.68735,1.56996 0.24438,3.34936 -0.97285,4.42772l-3.07954,2.85986l-0.10773,-0.11601l-0.1517,0.33639c-3.71092,2.39463 -7.2269,4.89424 -10.68787,7.51217c-0.09072,0.5284 -0.29086,1.03353 -0.5869,1.48076l-2.15775,3.36551l-0.15973,-0.1024c-0.16677,0.33049 -0.35883,0.64895 -0.58179,0.95277c-1.37132,1.86871 -4.18257,1.96369 -6.3304,2.87586l-2.27179,2.30741c-0.72748,1.22458 -1.4055,2.48839 -2.48491,3.3841c-0.4769,0.39574 -8.6907,3.95746 -10.16375,4.60238c0,0 -3.32564,1.45599 -4.93293,-1.68797c-0.47251,0.25934 -0.94493,0.51879 -1.41726,0.77836l-0.17677,0.03144l0.01847,0.04218l-7.05626,3.08931c-1.94853,0.85308 -4.21971,-0.03494 -5.0728,-1.98348c-0.56435,-1.28904 -0.36672,-2.71926 0.39582,-3.78673l3.60209,-5.22366l0.05038,0.03474c0.08498,-0.14529 0.17278,-0.28918 0.26364,-0.43158c1.17622,-1.84315 3.12473,-3.01597 4.9223,-4.31905c0.12927,-0.7506 0.47935,-1.45415 1.01145,-2.01138l5.13413,-5.62394l0.04423,0.04038c0.08193,-0.11088 0.16526,-0.22086 0.25007,-0.3299c0.06403,-0.08234 9.002,-6.40376 10.49689,-7.46204l0.11804,-0.03559l-0.01776,-0.0287l6.49213,-4.02127c0.16939,-0.1087 0.34953,-0.2055 0.53976,-0.2888c1.79119,-0.7842 3.85498,-0.09713 4.83929,1.53251c1.72844,-0.65861 3.66581,0.01229 4.62988,1.5505c2.14586,-1.07204 3.79783,-1.74163 5.42607,-2.25943z" stroke="none" stroke-width="0.5"/><path d="M214.57125,190.62068c3.79322,-5.68793 11.26961,-7.36365 16.69899,-3.74286c5.42939,3.6208 6.75576,11.16701 2.96254,16.85493c-3.79322,5.68793 -11.26961,7.36367 -16.69899,3.74287c-5.42939,-3.6208 -6.75576,-11.16701 -2.96254,-16.85494z" stroke="#000000" stroke-width="2"/><path d="M253.47365,202.48091l4.93668,2.03363c0.25608,0.09963 0.50539,0.22839 0.74344,0.38713c1.76968,1.18018 2.24755,3.57151 1.06738,5.34118c-0.95088,1.42584 -2.68802,2.01308 -4.25274,1.57016l-4.06951,-1.04955l0.03955,-0.15329l-0.36507,0.0538c-4.01851,-1.83214 -8.02024,-3.44349 -12.09187,-4.94471c-0.49383,0.20875 -1.02711,0.31283 -1.56337,0.30491l-3.99782,-0.00062l0.00003,-0.18974c-0.36823,0.03793 -0.74,0.04807 -1.11609,0.02429c-2.31326,-0.14617 -3.9102,-2.46177 -5.83715,-3.77784l-3.16851,-0.66756c-1.42354,0.04831 -2.85343,0.15943 -4.19001,-0.26601c-0.59052,-0.18798 -8.02139,-5.18139 -9.35923,-6.07359c0,0 -3.02036,-2.01426 -1.24069,-5.06397c-0.47331,-0.25786 -0.94667,-0.51562 -1.42008,-0.7732l-0.12184,-0.13186l-0.02554,0.03831l-6.40854,-4.27379c-1.76968,-1.18018 -2.24755,-3.5715 -1.06738,-5.34118c0.78074,-1.17072 2.09152,-1.77609 3.40171,-1.71009l6.34162,0.21396l-0.00206,0.06116c0.16817,-0.00687 0.33669,-0.01058 0.5056,-0.01091c2.18647,-0.0043 4.22531,1.00333 6.29238,1.8136c0.70172,-0.29619 1.48295,-0.38109 2.2392,-0.2338l7.5053,1.28782l-0.01012,0.05902c0.13756,0.00915 0.27512,0.01997 0.41269,0.03252c0.10387,0.00949 10.24898,4.12344 11.94659,4.81097l0.09365,0.08017l0.01457,-0.03044l6.88876,3.29595c0.18291,0.08396 0.36162,0.18338 0.5344,0.2986c1.62676,1.08486 2.16194,3.19316 1.32105,4.90124c1.48718,1.09981 1.96774,3.09296 1.1929,4.73464c2.0605,1.22815 3.51564,2.25766 4.83018,3.34908z" stroke="none" stroke-width="0.5"/><path d="M145.74937,175.8163c3.79322,-5.68793 11.26961,-7.36365 16.69899,-3.74286c5.42939,3.6208 6.75576,11.16701 2.96254,16.85494c-3.79322,5.68793 -11.2696,7.36365 -16.69899,3.74286c-5.42939,-3.6208 -6.75576,-11.16701 -2.96254,-16.85494z" stroke="#000000" stroke-width="2"/><path d="M184.65177,187.67654l4.93667,2.03364c0.25608,0.09963 0.50539,0.22839 0.74344,0.38713c1.76968,1.18018 2.24755,3.5715 1.06738,5.34118c-0.95088,1.42584 -2.68801,2.01308 -4.25273,1.57016l-4.06951,-1.04954l0.03955,-0.15329l-0.36507,0.0538c-4.01851,-1.83214 -8.02022,-3.44349 -12.09187,-4.94473c-0.49383,0.20875 -1.02711,0.31283 -1.56337,0.30493l-3.99782,-0.00062l0.00002,-0.18974c-0.36823,0.03793 -0.73999,0.04807 -1.11609,0.02431c-2.31326,-0.14617 -3.9102,-2.46177 -5.83715,-3.77784l-3.16853,-0.66756c-1.42354,0.04831 -2.85343,0.15943 -4.19,-0.26601c-0.59052,-0.18798 -8.02139,-5.18139 -9.35923,-6.07359c0,0 -3.02036,-2.01426 -1.24069,-5.06397c-0.47331,-0.25786 -0.94667,-0.51562 -1.42008,-0.7732l-0.12184,-0.13186l-0.02554,0.03831l-6.40854,-4.27379c-1.76968,-1.18018 -2.24755,-3.57151 -1.06738,-5.34118c0.78074,-1.17072 2.09152,-1.77609 3.40171,-1.71009l6.34162,0.21397l-0.00206,0.06116c0.16817,-0.00687 0.33669,-0.01058 0.5056,-0.01091c2.18647,-0.0043 4.22531,1.00333 6.29238,1.8136c0.70172,-0.29619 1.48295,-0.38109 2.2392,-0.2338l7.5053,1.28782l-0.01012,0.05902c0.13756,0.00915 0.27512,0.01997 0.41269,0.03252c0.10387,0.00949 10.24898,4.12346 11.94659,4.81097l0.09365,0.08017l0.01457,-0.03044l6.88876,3.29595c0.18291,0.08396 0.36162,0.18338 0.5344,0.2986c1.62676,1.08486 2.16194,3.19316 1.32105,4.90122c1.48718,1.09981 1.96774,3.09296 1.1929,4.73464c2.0605,1.22815 3.51564,2.25766 4.83018,3.34908z" stroke="none" stroke-width="0.5"/><path d="M207.46978,237.53671c3.79322,-5.68793 11.26961,-7.36365 16.69899,-3.74286c5.42939,3.6208 6.75576,11.16701 2.96254,16.85494c-3.79322,5.68793 -11.26961,7.36365 -16.69899,3.74286c-5.42939,-3.6208 -6.75576,-11.16701 -2.96254,-16.85494z" stroke="#000000" stroke-width="2"/><path d="M246.37217,249.39694l4.93668,2.03363c0.25608,0.09963 0.50539,0.22839 0.74344,0.38713c1.76968,1.18018 2.24755,3.57151 1.06738,5.34118c-0.95088,1.42584 -2.68802,2.01308 -4.25274,1.57016l-4.06951,-1.04954l0.03955,-0.15329l-0.36507,0.0538c-4.01851,-1.83214 -8.02024,-3.44349 -12.09187,-4.94471c-0.49383,0.20875 -1.02711,0.31283 -1.56337,0.30491l-3.99782,-0.00062l0.00003,-0.18974c-0.36823,0.03793 -0.74,0.04807 -1.11609,0.02429c-2.31326,-0.14617 -3.9102,-2.46177 -5.83715,-3.77784l-3.16851,-0.66756c-1.42354,0.04831 -2.85343,0.15943 -4.19001,-0.26601c-0.59052,-0.18798 -8.02139,-5.18139 -9.35923,-6.07359c0,0 -3.02036,-2.01426 -1.24069,-5.06397c-0.47331,-0.25786 -0.94667,-0.51563 -1.42008,-0.77322l-0.12184,-0.13186l-0.02554,0.03831l-6.40854,-4.27379c-1.76968,-1.18018 -2.24755,-3.57151 -1.06738,-5.34118c0.78074,-1.17072 2.09152,-1.77607 3.40171,-1.71008l6.34162,0.21396l-0.00206,0.06116c0.16817,-0.00687 0.33669,-0.01058 0.5056,-0.01092c2.18647,-0.0043 4.22531,1.00333 6.29238,1.8136c0.70172,-0.29619 1.48295,-0.38109 2.2392,-0.2338l7.5053,1.28782l-0.01012,0.05902c0.13756,0.00915 0.27512,0.01997 0.41269,0.03252c0.10387,0.00949 10.24898,4.12346 11.94659,4.81097l0.09365,0.08017l0.01457,-0.03044l6.88876,3.29595c0.18291,0.08396 0.36162,0.18338 0.5344,0.2986c1.62676,1.08486 2.16194,3.19316 1.32105,4.90122c1.48718,1.09981 1.96774,3.09296 1.1929,4.73464c2.0605,1.22815 3.51564,2.25766 4.83018,3.3491z" stroke="none" stroke-width="0.5"/><path d="M210.23231,222.40097c0,2.29319 -1.36537,3.22099 -2.47021,3.59638c-0.42876,0.16477 -0.89445,0.25507 -1.38124,0.25507c-0.51044,0 -1.11674,0 -1.78077,0c-0.69676,0.69539 -1.65851,1.12536 -2.72068,1.12536c-1.06218,0 -2.02392,-0.42998 -2.72068,-1.12536c-1.10352,0 -2.11884,0 -2.90614,0c0,0 -3.85145,0 -3.85145,-3.85145c0,-3.85145 3.85145,-3.85145 3.85145,-3.85145c2.56763,0 5.13528,0 7.70291,0h2.42537c0.48679,0 0.95248,0.09031 1.38124,0.25509c1.10484,0.37538 2.47021,1.30319 2.47021,3.59636z" stroke="none" stroke-width="0.5"/><path d="M237.2474,229.60425c0.05893,0.4674 0.03053,1.00084 -0.12135,1.6084c-0.93412,3.73645 -4.67056,2.80235 -4.67056,2.80235c-1.50048,-0.37512 -3.00098,-0.75025 -4.50146,-1.12536l-4.4233,-1.10583c-1.71513,-0.38923 -2.99549,-1.92309 -2.99549,-3.756c0,-1.73254 1.14397,-3.19788 2.71777,-3.6819l1.89994,-0.6333c0.9362,-3.73063 4.66932,-2.79736 4.66932,-2.79736l2.64761,0.68141c1.07285,-0.07832 2.17475,0.01504 3.27894,0.12208c0.73911,-0.10625 1.46109,-0.145 2.09094,0.17952c0.28179,0.01571 0.56259,0.02573 0.842,0.02736h5.96149c2.1271,0 3.85145,1.72436 3.85145,3.85145c0,2.1271 -1.72436,3.85145 -3.85145,3.85145h-6.75218v-0.01077c-0.21409,-0.00354 -0.4287,-0.00795 -0.64365,-0.0135z" stroke="none" stroke-width="0.5"/><path d="M270.31555,239.61279c3.79322,-5.68793 11.2696,-7.36365 16.69899,-3.74286c5.42939,3.6208 6.75576,11.16701 2.96254,16.85493c-3.79322,5.68793 -11.2696,7.36367 -16.69899,3.74287c-5.42939,-3.6208 -6.75576,-11.16701 -2.96254,-16.85494z" stroke="#000000" stroke-width="2"/><path d="M309.21793,251.47303l4.93668,2.03363c0.25608,0.09963 0.50539,0.22839 0.74344,0.38713c1.76968,1.18018 2.24755,3.57151 1.06738,5.34118c-0.95088,1.42584 -2.68801,2.01308 -4.25273,1.57016l-4.06951,-1.04954l0.03955,-0.1533l-0.36507,0.0538c-4.01853,-1.83214 -8.02024,-3.44349 -12.09187,-4.94471c-0.49383,0.20875 -1.02711,0.31283 -1.56337,0.30491l-3.99782,-0.00062l0.00002,-0.18974c-0.36823,0.03793 -0.73999,0.04807 -1.11609,0.02429c-2.31326,-0.14617 -3.9102,-2.46177 -5.83717,-3.77784l-3.16851,-0.66756c-1.42354,0.04831 -2.85343,0.15943 -4.19,-0.26601c-0.59052,-0.18798 -8.02139,-5.18139 -9.35923,-6.07359c0,0 -3.02036,-2.01426 -1.24069,-5.06397c-0.47331,-0.25786 -0.94667,-0.51562 -1.42008,-0.7732l-0.12184,-0.13186l-0.02554,0.03831l-6.40856,-4.27379c-1.76968,-1.18018 -2.24755,-3.57151 -1.06738,-5.34118c0.78074,-1.17072 2.09152,-1.77609 3.40171,-1.71009l6.34162,0.21397l-0.00206,0.06116c0.16817,-0.00687 0.33669,-0.01058 0.5056,-0.01091c2.18647,-0.0043 4.22531,1.00333 6.29238,1.8136c0.70172,-0.29619 1.48295,-0.38109 2.2392,-0.2338l7.5053,1.2878l-0.01012,0.05902c0.13756,0.00915 0.27512,0.01995 0.41269,0.03251c0.10387,0.00949 10.24898,4.12346 11.94659,4.81097l0.09365,0.08017l0.01457,-0.03044l6.88876,3.29595c0.18293,0.08396 0.36162,0.18338 0.5344,0.2986c1.62676,1.08486 2.16194,3.19316 1.32105,4.90124c1.48717,1.09981 1.96774,3.09296 1.1929,4.73464c2.06048,1.22815 3.51562,2.25766 4.83018,3.34908z" stroke="none" stroke-width="0.5"/></g></g></svg>